<svg xmlns="http://www.w3.org/2000/svg" width="20.875" height="20.875" viewBox="0 0 20.875 20.875">
  <g id="dribbble" transform="translate(0.125 0.125)">
    <path id="Path_3" data-name="Path 3" d="M10.312,0A10.312,10.312,0,1,0,20.625,10.312,10.324,10.324,0,0,0,10.312,0Zm9.023,10.314a14.85,14.85,0,0,0-6.575-.321c-.276-.635-.559-1.247-.846-1.83a13.5,13.5,0,0,0,5.3-3.654,8.981,8.981,0,0,1,2.123,5.8ZM16.314,3.593a12.2,12.2,0,0,1-5,3.4A44.784,44.784,0,0,0,7.981,1.606a8.911,8.911,0,0,1,8.333,1.987ZM6.7,2.049a43.893,43.893,0,0,1,3.372,5.38A28.448,28.448,0,0,1,1.465,8.551,9.05,9.05,0,0,1,6.7,2.049ZM1.289,10.312c0-.159.016-.314.024-.471.241.008.539.015.889.015A28.442,28.442,0,0,0,10.68,8.607q.4.815.8,1.7a14.469,14.469,0,0,0-7.8,6.1,8.977,8.977,0,0,1-2.393-6.1Zm3.338,7a12.7,12.7,0,0,1,7.343-5.842,33.5,33.5,0,0,1,2.045,7.063,8.971,8.971,0,0,1-9.389-1.221Zm10.586.567a35.094,35.094,0,0,0-1.952-6.688,14.067,14.067,0,0,1,5.968.43A9.027,9.027,0,0,1,15.214,17.878Z" fill="#fff" stroke="#fff" stroke-width="0.25"/>
  </g>
</svg>
