<svg id="instagram-logo" xmlns="http://www.w3.org/2000/svg" width="18.699" height="18.699" viewBox="0 0 18.699 18.699">
  <path id="Path_4" data-name="Path 4" d="M13.539,0H5.16A5.166,5.166,0,0,0,0,5.16v8.379A5.166,5.166,0,0,0,5.16,18.7h8.379a5.166,5.166,0,0,0,5.16-5.16V5.16A5.166,5.166,0,0,0,13.539,0Zm3.5,13.539a3.505,3.505,0,0,1-3.5,3.5H5.16a3.505,3.505,0,0,1-3.5-3.5V5.16a3.505,3.505,0,0,1,3.5-3.5h8.379a3.505,3.505,0,0,1,3.5,3.5v8.379Z" fill="#fff"/>
  <path id="Path_5" data-name="Path 5" d="M45.786,40.97A4.818,4.818,0,1,0,50.6,45.788,4.824,4.824,0,0,0,45.786,40.97Zm0,7.977a3.159,3.159,0,1,1,3.159-3.159A3.163,3.163,0,0,1,45.786,48.947Z" transform="translate(-36.437 -36.439)" fill="#fff"/>
  <path id="Path_6" data-name="Path 6" d="M120.138,28.251a1.216,1.216,0,1,0,.861.356A1.221,1.221,0,0,0,120.138,28.251Z" transform="translate(-105.768 -25.126)" fill="#fff"/>
</svg>
