<svg id="twitter-logo-silhouette" xmlns="http://www.w3.org/2000/svg" width="22.902" height="18.603" viewBox="0 0 22.902 18.603">
  <g id="Group_44" data-name="Group 44" transform="translate(0)">
    <path id="Path_2" data-name="Path 2" d="M22.9,59.642a9.382,9.382,0,0,1-2.7.74,4.718,4.718,0,0,0,2.065-2.6,9.472,9.472,0,0,1-2.985,1.141,4.7,4.7,0,0,0-8.006,4.283A13.338,13.338,0,0,1,1.6,58.3a4.7,4.7,0,0,0,1.454,6.271,4.7,4.7,0,0,1-2.128-.59v.059a4.7,4.7,0,0,0,3.768,4.607,4.758,4.758,0,0,1-1.238.165,4.51,4.51,0,0,1-.884-.087,4.7,4.7,0,0,0,4.388,3.263,9.426,9.426,0,0,1-5.835,2.008A9.986,9.986,0,0,1,0,73.93a13.28,13.28,0,0,0,7.2,2.114A13.275,13.275,0,0,0,20.569,62.678l-.016-.608A9.382,9.382,0,0,0,22.9,59.642Z" transform="translate(-0.001 -57.441)" fill="#fff"/>
  </g>
</svg>
